<svg width="1034" height="455" viewBox="0 0 1034 455" fill="none" xmlns="http://www.w3.org/2000/svg">
<path d="M160.419 321.146C144.623 321.146 131.164 318.587 120.04 313.467C109.139 308.348 100.574 301.338 94.3449 292.435C88.3382 283.31 84.8899 272.961 84 261.387L113.366 259.384C115.146 270.067 119.707 278.636 127.048 285.09C134.39 291.322 145.513 294.438 160.419 294.438C172.432 294.438 181.998 292.546 189.117 288.763C196.459 284.757 200.13 278.413 200.13 269.733C200.13 265.059 199.017 261.165 196.793 258.049C194.568 254.933 190.23 252.262 183.778 250.036C177.327 247.588 167.76 245.251 155.079 243.025C138.172 239.91 124.823 236.126 115.035 231.675C105.468 227.001 98.5718 221.325 94.3449 214.648C90.3404 207.749 88.3382 199.625 88.3382 190.277C88.3382 174.475 94.1224 161.566 105.691 151.551C117.259 141.313 133.722 136.194 155.079 136.194C169.54 136.194 181.665 138.865 191.453 144.206C201.465 149.325 209.251 156.225 214.813 164.905C220.597 173.362 224.379 182.71 226.159 192.948L196.793 194.951C195.458 188.719 193.011 183.267 189.451 178.593C185.892 173.696 181.22 169.913 175.436 167.242C169.651 164.348 162.755 162.902 154.746 162.902C142.065 162.902 132.721 165.35 126.714 170.246C120.708 175.143 117.704 181.375 117.704 188.942C117.704 194.729 119.039 199.514 121.709 203.297C124.601 206.859 129.162 209.863 135.391 212.311C141.62 214.537 149.963 216.54 160.419 218.321C178.439 221.437 192.455 225.22 202.466 229.672C212.477 234.123 219.485 239.576 223.489 246.03C227.494 252.485 229.496 260.386 229.496 269.733C229.496 280.639 226.381 289.987 220.152 297.777C214.145 305.344 205.914 311.131 195.458 315.137C185.224 319.143 173.545 321.146 160.419 321.146Z" fill="#4457C4"/>
<path d="M236.436 317.807L294.193 79H319.338L263.132 317.807H236.436Z" fill="#4457C4"/>
<path d="M372.243 321.146C354 321.146 339.429 316.917 328.528 308.46C317.849 300.002 312.51 288.206 312.51 273.072C312.51 257.937 316.959 246.03 325.858 237.35C334.757 228.67 348.884 222.549 368.239 218.988L430.975 207.304C430.975 192.392 427.416 181.263 420.297 173.919C413.4 166.574 402.944 162.902 388.928 162.902C376.692 162.902 367.015 165.684 359.896 171.248C352.777 176.59 347.883 184.379 345.213 194.617L315.513 192.28C318.85 175.588 326.859 162.123 339.54 151.885C352.443 141.424 368.906 136.194 388.928 136.194C411.62 136.194 428.973 142.648 440.987 155.557C453 168.243 459.007 185.826 459.007 208.305V281.418C459.007 285.424 459.674 288.318 461.009 290.098C462.566 291.656 465.013 292.435 468.35 292.435H475.358V317.14C474.468 317.362 473.022 317.474 471.02 317.474C469.018 317.696 466.904 317.808 464.68 317.808C456.671 317.808 450.108 316.583 444.991 314.135C440.097 311.464 436.537 307.458 434.312 302.117C432.088 296.553 430.975 289.319 430.975 280.417L434.312 281.084C432.755 288.651 428.973 295.551 422.966 301.783C416.96 307.792 409.507 312.577 400.608 316.138C391.709 319.477 382.254 321.146 372.243 321.146ZM374.913 296.441C386.704 296.441 396.715 294.216 404.946 289.764C413.4 285.09 419.852 278.859 424.301 271.069C428.751 263.056 430.975 254.154 430.975 244.361V231.675L373.578 242.358C361.564 244.583 353.222 248.033 348.55 252.707C344.1 257.158 341.876 263.056 341.876 270.401C341.876 278.636 344.768 285.09 350.552 289.764C356.559 294.216 364.679 296.441 374.913 296.441Z" fill="#4457C4"/>
<path d="M554.852 321.146C539.056 321.146 525.597 318.587 514.473 313.467C503.572 308.348 495.007 301.338 488.778 292.435C482.771 283.31 479.323 272.961 478.433 261.387L507.799 259.384C509.579 270.067 514.14 278.636 521.481 285.09C528.823 291.322 539.946 294.438 554.852 294.438C566.865 294.438 576.432 292.546 583.551 288.763C590.892 284.757 594.563 278.413 594.563 269.733C594.563 265.059 593.451 261.165 591.226 258.049C589.001 254.933 584.663 252.262 578.211 250.036C571.76 247.588 562.193 245.251 549.513 243.025C532.605 239.91 519.257 236.126 509.468 231.675C499.902 227.001 493.005 221.325 488.778 214.648C484.774 207.749 482.771 199.625 482.771 190.277C482.771 174.475 488.556 161.566 500.124 151.551C511.693 141.313 528.155 136.194 549.513 136.194C563.973 136.194 576.098 138.865 585.887 144.206C595.898 149.325 603.684 156.225 609.246 164.905C615.03 173.362 618.812 182.71 620.592 192.948L591.226 194.951C589.891 188.719 587.444 183.267 583.884 178.593C580.325 173.696 575.653 169.913 569.869 167.242C564.084 164.348 557.188 162.902 549.179 162.902C536.498 162.902 527.154 165.35 521.148 170.246C515.141 175.143 512.137 181.375 512.137 188.942C512.137 194.729 513.472 199.514 516.142 203.297C519.034 206.859 523.595 209.863 529.824 212.311C536.053 214.537 544.396 216.54 554.852 218.321C572.872 221.437 586.888 225.22 596.899 229.672C606.91 234.123 613.918 239.576 617.922 246.03C621.927 252.485 623.929 260.386 623.929 269.733C623.929 280.639 620.814 289.987 614.585 297.777C608.579 305.344 600.347 311.131 589.891 315.137C579.657 319.143 567.978 321.146 554.852 321.146Z" fill="#4457C4"/>
<path d="M641.211 317.14V78.5H669.242V179.26L665.905 178.593C668.13 168.8 671.912 160.787 677.251 154.556C682.591 148.324 689.154 143.761 696.94 140.868C704.727 137.752 713.292 136.194 722.636 136.194C735.316 136.194 745.995 139.087 754.671 144.874C763.57 150.438 770.244 158.339 774.694 168.577C779.365 178.593 781.702 190.166 781.702 203.297V317.14H753.67V211.31C753.67 194.172 750.556 181.486 744.326 173.251C738.32 165.016 729.087 160.899 716.629 160.899C702.391 160.899 690.933 165.239 682.257 173.919C673.581 182.599 669.242 195.174 669.242 211.644V317.14H641.211Z" fill="#4457C4"/>
<path d="M812.513 371V346.295H832.869C839.098 346.295 843.659 345.294 846.551 343.291C849.666 341.51 852.002 338.505 853.559 334.277L859.899 317.584H850.222L785.483 143.983H816.184L868.91 291.544L919.299 143.983H950L878.253 343.291C874.916 352.861 869.911 359.872 863.237 364.323C856.562 368.774 847.33 371 835.539 371H812.513Z" fill="#4457C4"/>
</svg>
